<svg width="332" height="28" viewBox="0 0 332 28" fill="none" xmlns="http://www.w3.org/2000/svg">
<g clip-path="url(#clip0_4_229)">
<path d="M44.8853 26.7686L34.1244 0.553223H28.3647L39.1257 26.7686H44.8853Z" fill="white"/>
<path d="M25.3496 0.553223H25.3315H19.59L30.3328 26.7686H36.0925L25.3496 0.553223Z" fill="white"/>
<path d="M23.9594 11.2251L21.522 17.2034L23.3817 26.7688L26.8483 18.292L23.9594 11.2251Z" fill="white"/>
<path d="M16.5206 0.553223H10.761L21.5219 26.7686H27.2815L16.5206 0.553223Z" fill="white"/>
<path d="M17.6219 26.7687H21.5219L19.5719 21.9861L17.6219 26.7687Z" fill="white"/>
<path d="M10.7609 0.553223L0 26.7686H5.75963L13.6498 7.56661L10.7609 0.553223Z" fill="white"/>
<path d="M8.81091 26.7686H14.5705L22.4607 7.54876L19.5899 0.553223L8.81091 26.7686Z" fill="white"/>
<path d="M28.3648 0.553223H25.3496L27.4982 5.81772H30.5315L28.3648 0.553223Z" fill="white"/>
<path d="M79.3168 0L67.4004 11.9031L55.4839 0V27.0542H60.4491V10.6718L67.4004 17.8101L74.3697 10.6718V27.0542H79.3168V0Z" fill="white"/>
<path d="M106.689 17.3639C106.201 18.4704 105.533 19.4519 104.666 20.2906C103.8 21.1294 102.807 21.7897 101.705 22.2537C100.604 22.7177 99.4484 22.9496 98.2387 22.9496C97.029 22.9496 95.8915 22.7177 94.7721 22.2537C93.6526 21.7897 92.6777 21.1294 91.8291 20.2906C90.9805 19.4519 90.2944 18.4704 89.8069 17.3639C89.3013 16.2575 89.0666 15.0618 89.0666 13.7948C89.0666 12.5277 89.3194 11.3321 89.8069 10.2256C90.3124 9.11918 90.9805 8.13767 91.8291 7.29892C92.6777 6.46017 93.6707 5.79987 94.7721 5.33588C95.8734 4.87189 97.029 4.6399 98.2387 4.6399C99.4484 4.6399 100.586 4.87189 101.705 5.33588C102.825 5.79987 103.8 6.46017 104.666 7.29892C105.533 8.13767 106.219 9.11918 106.689 10.2256C107.176 11.3321 107.411 12.5277 107.411 13.7948C107.429 15.0618 107.176 16.2575 106.689 17.3639ZM108.44 3.99745C107.104 2.74825 105.569 1.76673 103.836 1.07075C102.102 0.356915 100.243 0 98.2387 0C96.2706 0 94.411 0.356915 92.6415 1.0529C90.8721 1.74888 89.3374 2.7304 88.0375 3.97961C86.7194 5.22881 85.7083 6.71001 84.9681 8.38751C84.2278 10.0829 83.8486 11.8853 83.8486 13.7948C83.8486 15.7043 84.2097 17.5067 84.9681 19.1842C85.7083 20.8617 86.7375 22.3251 88.0555 23.5921C89.3735 24.8591 90.9263 25.8407 92.6596 26.5545C94.411 27.2505 96.2706 27.6074 98.2387 27.6074C100.225 27.6074 102.102 27.2505 103.854 26.5545C105.605 25.8585 107.14 24.877 108.44 23.6278C109.758 22.3786 110.769 20.8974 111.509 19.2199C112.25 17.5245 112.629 15.7221 112.629 13.8126C112.629 11.9031 112.268 10.1007 111.545 8.40535C110.823 6.71001 109.794 5.24665 108.44 3.99745Z" fill="white"/>
<path d="M130.738 0.553223L124.004 16.0969L117.251 0.553223H112.123L124.004 27.6074L135.866 0.553223H130.738Z" fill="white"/>
<path d="M269.06 0.553223V27.0542H274.007V0.553223M241.778 0.553223V14.0625V18.7024V27.0542H246.725V18.7024H252.792L258.389 27.0542H264.618L257.919 17.5959C259.761 17.0249 261.278 16.0255 262.451 14.5978C263.625 13.1702 264.203 11.5105 264.203 9.61887C264.203 6.9777 263.318 4.80051 261.585 3.10517C259.833 1.40982 257.486 0.553223 254.561 0.553223H241.778ZM257.938 6.46017C258.804 7.29892 259.238 8.35182 259.238 9.61887C259.238 10.8859 258.804 11.9388 257.938 12.7776C257.071 13.6163 255.807 14.0446 254.164 14.0446H246.725V5.19312H254.164C255.807 5.19312 257.071 5.62142 257.938 6.46017Z" fill="white"/>
<path d="M208.177 0.553223L196.802 11.9031L185.446 0.553223H184.886V27.0542H189.851V10.6718L196.802 17.8101L203.772 10.6718V27.0542H208.719V0.553223H208.177Z" fill="white"/>
<path d="M220.635 22.4143V15.7935H231.523V11.1358H220.635V5.19312H236.271V0.553223H215.688V11.1358V15.7935V27.0542H236.271V22.4143H220.635Z" fill="white"/>
<path d="M304.719 22.1644L300.71 19.2912C299.862 20.4512 298.778 21.3435 297.478 21.986C296.179 22.6284 294.788 22.9496 293.272 22.9496C292.08 22.9496 290.924 22.7176 289.805 22.2536C288.686 21.7897 287.711 21.1294 286.862 20.2906C286.013 19.4519 285.327 18.4703 284.84 17.3639C284.334 16.2575 284.1 15.0618 284.1 13.7948C284.1 12.5277 284.352 11.332 284.84 10.2256C285.345 9.11916 286.013 8.13765 286.862 7.2989C287.711 6.46015 288.704 5.79985 289.805 5.33586C290.924 4.87187 292.062 4.63988 293.272 4.63988C294.788 4.63988 296.16 4.97895 297.442 5.63924C298.706 6.29953 299.772 7.24536 300.62 8.49456L304.719 5.46078C303.274 3.65836 301.559 2.30208 299.573 1.39195C298.851 1.05288 298.092 0.785194 297.334 0.571045H289.191C288.686 0.713811 288.18 0.874423 287.674 1.07073C285.905 1.76671 284.37 2.74823 283.07 3.99743C281.752 5.24663 280.741 6.72783 280.001 8.40533C279.261 10.1007 278.882 11.9031 278.882 13.8126C278.882 15.7221 279.243 17.5245 280.001 19.202C280.741 20.8795 281.77 22.3429 283.088 23.6099C284.406 24.877 285.959 25.8585 287.693 26.5723C288.18 26.7686 288.686 26.9292 289.191 27.072H297.334C298.092 26.8579 298.833 26.5902 299.573 26.2511C301.559 25.3231 303.274 23.9668 304.719 22.1644Z" fill="white"/>
<path d="M317.43 0.553223L305.965 27.0542H311.255L313.313 22.0752H324.67L326.728 27.0542H332.018L320.644 0.553223H317.43ZM322.9 17.6852H315.101H315.082L319.019 8.19121L322.9 17.6852Z" fill="white"/>
<path d="M170.442 0.553223H166.668L155.275 27.0542H160.981L163.039 22.0752H174.396L176.454 27.0542H181.799L170.424 0.588914L170.442 0.553223ZM172.626 17.6852H164.809L168.745 8.19121L172.626 17.6852Z" fill="white"/>
<path d="M319.019 8.19116L315.083 17.6851H315.101L319.019 8.20901V8.19116Z" fill="white"/>
<path d="M319.054 8.18887L319.038 8.19556L322.923 17.6923L322.94 17.6856L319.054 8.18887Z" fill="white"/>
<path d="M143.828 0.553223H143.07L138.917 9.81517H144.442L146.518 5.19312H161.071L163.057 0.553223H143.828Z" fill="white"/>
<path d="M134.024 20.7547H139.549L141.625 16.1326H156.377L157.37 13.8126L158.363 11.4749H138.177L134.024 20.7547Z" fill="white"/>
<path d="M131.208 27.0542H132.201H151.682L153.668 22.4143H133.284L131.208 27.0542Z" fill="white"/>
<path d="M10.761 0.553223L9.17212 4.46144L12.1512 11.225L13.6498 7.56661L10.761 0.553223Z" fill="white"/>
<path d="M19.59 0.553223L18.0553 4.28299L20.9261 11.2785L22.4608 7.54876L19.59 0.553223Z" fill="white"/>
<path d="M23.9594 11.2251L22.6052 14.5444L25.5121 21.5756L26.8482 18.292L23.9594 11.2251Z" fill="white"/>
<path d="M19.5539 21.9861L18.0372 25.7158L18.5428 26.7687H21.5219L19.5539 21.9861Z" fill="white"/>
<path d="M28.3648 0.553223H25.6384L27.787 5.81772H30.5314L28.3648 0.553223Z" fill="white"/>
</g>
<defs>
<clipPath id="clip0_4_229">
<rect width="332" height="28" fill="white"/>
</clipPath>
</defs>
</svg>
